<?xml version="1.0" encoding="utf-8"?>
<!-- Generator: Adobe Illustrator 17.1.0, SVG Export Plug-In . SVG Version: 6.00 Build 0)  -->
<!DOCTYPE svg PUBLIC "-//W3C//DTD SVG 1.1//EN" "http://www.w3.org/Graphics/SVG/1.1/DTD/svg11.dtd">
<svg version="1.1" id="Layer_1" xmlns="http://www.w3.org/2000/svg" xmlns:xlink="http://www.w3.org/1999/xlink" x="0px" y="0px"
	 viewBox="0 0 35.71 35.71" enable-background="new 0 0 35.71 35.71" xml:space="preserve">
<g>
	<g>
		<path fill-rule="evenodd" clip-rule="evenodd" d="M10.855,17.879v-0.062c0-0.552-0.448-1-1-1h-2c-0.552,0-1,0.448-1,1v0.062
			c0,0.552,0.448,1,1,1h2C10.407,18.879,10.855,18.431,10.855,17.879z M12.878,22.777c-0.391-0.391-1.024-0.391-1.414,0
			l-1.414,1.414c-0.391,0.39-0.391,1.024,0,1.414l0.044,0.044c0.391,0.391,1.024,0.391,1.414,0l1.414-1.414
			c0.391-0.391,0.391-1.024,0-1.414L12.878,22.777z M17.83,10.855h0.062c0.552,0,1-0.448,1-1v-2c0-0.552-0.448-1-1-1H17.83
			c-0.552,0-1,0.448-1,1v2C16.83,10.407,17.278,10.855,17.83,10.855z M22.822,12.922c0.391,0.391,1.024,0.391,1.414,0l1.414-1.414
			c0.391-0.391,0.391-1.024,0-1.414l-0.044-0.044c-0.391-0.391-1.024-0.391-1.414,0l-1.414,1.414c-0.391,0.391-0.391,1.024,0,1.414
			L22.822,12.922z M27.855,16.816h-2c-0.552,0-1,0.448-1,1v0.062c0,0.552,0.448,1,1,1h2c0.552,0,1-0.448,1-1v-0.062
			C28.855,17.264,28.407,16.816,27.855,16.816z M24.236,22.787c-0.391-0.391-1.024-0.391-1.414,0l-0.044,0.044
			c-0.391,0.391-0.391,1.024,0,1.414l1.414,1.414c0.391,0.391,1.024,0.391,1.414,0l0.044-0.044c0.391-0.391,0.391-1.024,0-1.414
			L24.236,22.787z M17.855,11.824c-3.317,0-6.006,2.689-6.006,6.006c0,3.317,2.689,6.006,6.006,6.006
			c3.317,0,6.006-2.689,6.006-6.006C23.861,14.513,21.172,11.824,17.855,11.824z M17.866,21.899c-2.238,0-4.053-1.815-4.053-4.053
			c0-2.238,1.815-4.053,4.053-4.053c2.238,0,4.053,1.815,4.053,4.053C21.919,20.084,20.105,21.899,17.866,21.899z M17.893,24.855
			H17.83c-0.552,0-1,0.448-1,1v2c0,0.552,0.448,1,1,1h0.062c0.552,0,1-0.448,1-1v-2C18.893,25.302,18.445,24.855,17.893,24.855z
			 M11.464,12.932c0.391,0.391,1.024,0.391,1.414,0l0.044-0.044c0.391-0.391,0.391-1.024,0-1.414l-1.414-1.414
			c-0.391-0.391-1.024-0.391-1.414,0l-0.044,0.044c-0.391,0.391-0.391,1.024,0,1.414L11.464,12.932z"/>
	</g>
</g>
</svg>
